ffmpeg started on 2025-05-12 at 15:40:18
Report written to "D:\Convert\FFMetrics\reports\ssim_report-6.txt"
Log level: 32
Command line:
ffmpeg -hide_banner -nostdin -i "G:\\\xc0\xed\xe8\xec\xe5\\\xce\xed\xe3\xee\xe8\xed\xe3\xe8\\!_35_\xcb\xe5\xf2\xee_2024\\DreamCast\\\xcb\xfe\xe1\xee\xe2\xfc \xed\xe5\xe4\xe5\xeb\xe8\xec\xe0 \xec\xe5\xe6\xe4\xf3 \xe1\xeb\xe8\xe7\xed\xe5\xf6\xe0\xec\xe8\\[DC] Koi wa Futago de Warikirenai - 04_Telegram_HEVC.mkv" -i "G:\\\xc0\xed\xe8\xec\xe5\\\xce\xed\xe3\xee\xe8\xed\xe3\xe8\\!_35_\xcb\xe5\xf2\xee_2024\\DreamCast\\\xcb\xfe\xe1\xee\xe2\xfc \xed\xe5\xe4\xe5\xeb\xe8\xec\xe0 \xec\xe5\xe6\xe4\xf3 \xe1\xeb\xe8\xe7\xed\xe5\xf6\xe0\xec\xe8\\[DC] Koi wa Futago de Warikirenai - 04_Telegram.mp4" -lavfi "[0:v]settb=AVTB,setpts=PTS-STARTPTS,format=pix_fmts=yuv420p10,fps=24000/1001,scale=1920:1080:flags=bicubic[main];[1:v]settb=AVTB,setpts=PTS-STARTPTS,format=pix_fmts=yuv420p,fps=24000/1001,scale=1920:1080:flags=bicubic[ref];[main][ref]ssim=eof_action=endall:stats_file='D\\:/Convert/FFMetrics/logs/ssim_logfile-6.txt'" -f null -
Input #0, matroska,webm, from 'G:\Аниме\Онгоинги\!_35_Лето_2024\DreamCast\Любовь неделима между близнецами\[DC] Koi wa Futago de Warikirenai - 04_Telegram_HEVC.mkv':
  Metadata:
    COMPATIBLE_BRANDS: isomiso2avc1mp41
    MAJOR_BRAND     : isom
    MINOR_VERSION   : 512
    ENCODER         : Lavf61.7.100
  Duration: 00:23:46.73, start: -0.021000, bitrate: 846 kb/s
  Stream #0:0: Video: hevc (Main 10), yuv420p10le(tv, bt709, progressive), 1920x1080 [SAR 1:1 DAR 16:9], 23.98 fps, 23.98 tbr, 1k tbn (default)
      Metadata:
        HANDLER_NAME    : VideoHandler
        VENDOR_ID       : [0][0][0][0]
        ENCODER         : Lavc61.19.100 libx265
        BPS             : 649700
        DURATION        : 00:23:46.549708333
        NUMBER_OF_FRAMES: 34203
        NUMBER_OF_BYTES : 115853620
        _STATISTICS_WRITING_APP: mkvpropedit v66.0.0 ('Josie') 64-bit
        _STATISTICS_WRITING_DATE_UTC: 2025-05-07 15:06:08
        _STATISTICS_TAGS: BPS DURATION NUMBER_OF_FRAMES NUMBER_OF_BYTES
  Stream #0:1: Audio: aac (LC), 48000 Hz, stereo, fltp (default)
      Metadata:
        HANDLER_NAME    : SoundHandler
        VENDOR_ID       : [0][0][0][0]
        ENCODER         : Lavc61.19.100 aac
        BPS             : 193105
        DURATION        : 00:23:46.730000000
        NUMBER_OF_FRAMES: 66879
        NUMBER_OF_BYTES : 34438751
        _STATISTICS_WRITING_APP: mkvpropedit v66.0.0 ('Josie') 64-bit
        _STATISTICS_WRITING_DATE_UTC: 2025-05-07 15:06:08
        _STATISTICS_TAGS: BPS DURATION NUMBER_OF_FRAMES NUMBER_OF_BYTES
Input #1, mov,mp4,m4a,3gp,3g2,mj2, from 'G:\Аниме\Онгоинги\!_35_Лето_2024\DreamCast\Любовь неделима между близнецами\[DC] Koi wa Futago de Warikirenai - 04_Telegram.mp4':
  Metadata:
    major_brand     : isom
    minor_version   : 512
    compatible_brands: isomiso2avc1mp41
    encoder         : Lavf61.1.100
  Duration: 00:23:46.68, start: 0.000000, bitrate: 3842 kb/s
  Stream #1:0[0x1](und): Video: h264 (High) (avc1 / 0x31637661), yuv420p(tv, bt709, progressive), 1920x1080 [SAR 1:1 DAR 16:9], 3694 kb/s, 23.98 fps, 23.98 tbr, 24k tbn (default)
      Metadata:
        handler_name    : VideoHandler
        vendor_id       : [0][0][0][0]
        encoder         : Lavc61.3.100 h264_qsv
  Stream #1:1[0x2](und): Audio: aac (HE-AACv2) (mp4a / 0x6134706D), 48000 Hz, stereo, fltp, 144 kb/s (default)
      Metadata:
        handler_name    : SoundHandler
        vendor_id       : [0][0][0][0]
Stream mapping:
  Stream #0:0 (hevc) -> settb:default
  Stream #1:0 (h264) -> settb:default
  ssim:default -> Stream #0:0 (wrapped_avframe)
  Stream #0:1 -> #0:1 (aac (native) -> pcm_s16le (native))
Output #0, null, to 'pipe:':
  Metadata:
    COMPATIBLE_BRANDS: isomiso2avc1mp41
    MAJOR_BRAND     : isom
    MINOR_VERSION   : 512
    encoder         : Lavf61.7.100
  Stream #0:0: Video: wrapped_avframe, yuv420p10le(tv, bt709, progressive), 1920x1080 [SAR 1:1 DAR 16:9], q=2-31, 200 kb/s, 23.98 fps, 23.98 tbn
      Metadata:
        encoder         : Lavc61.19.100 wrapped_avframe
  Stream #0:1: Audio: pcm_s16le, 48000 Hz, stereo, s16, 1536 kb/s (default)
      Metadata:
        HANDLER_NAME    : SoundHandler
        VENDOR_ID       : [0][0][0][0]
        _STATISTICS_TAGS: BPS DURATION NUMBER_OF_FRAMES NUMBER_OF_BYTES
        BPS             : 193105
        DURATION        : 00:23:46.730000000
        NUMBER_OF_FRAMES: 66879
        NUMBER_OF_BYTES : 34438751
        _STATISTICS_WRITING_APP: mkvpropedit v66.0.0 ('Josie') 64-bit
        _STATISTICS_WRITING_DATE_UTC: 2025-05-07 15:06:08
        encoder         : Lavc61.19.100 pcm_s16le
frame=  157 fps=0.0 q=-0.0 size=N/A time=00:00:06.54 bitrate=N/A speed=12.7x    frame=  412 fps=403 q=-0.0 size=N/A time=00:00:17.18 bitrate=N/A speed=16.8x    frame=  668 fps=432 q=-0.0 size=N/A time=00:00:27.86 bitrate=N/A speed=  18x    frame=  920 fps=448 q=-0.0 size=N/A time=00:00:38.37 bitrate=N/A speed=18.7x    frame= 1140 fps=443 q=-0.0 size=N/A time=00:00:47.54 bitrate=N/A speed=18.5x    frame= 1384 fps=449 q=-0.0 size=N/A time=00:00:57.72 bitrate=N/A speed=18.7x    frame= 1652 fps=458 q=-0.0 size=N/A time=00:01:08.90 bitrate=N/A speed=19.1x    frame= 1910 fps=464 q=-0.0 size=N/A time=00:01:19.66 bitrate=N/A speed=19.3x    frame= 2162 fps=467 q=-0.0 size=N/A time=00:01:30.17 bitrate=N/A speed=19.5x    frame= 2423 fps=470 q=-0.0 size=N/A time=00:01:41.05 bitrate=N/A speed=19.6x    frame= 2681 fps=474 q=-0.0 size=N/A time=00:01:51.82 bitrate=N/A speed=19.8x    frame= 2918 fps=472 q=-0.0 size=N/A time=00:02:01.70 bitrate=N/A speed=19.7x    frame= 3163 fps=472 q=-0.0 size=N/A time=00:02:11.92 bitrate=N/A speed=19.7x    frame= 3419 fps=474 q=-0.0 size=N/A time=00:02:22.60 bitrate=N/A speed=19.8x    frame= 3633 fps=470 q=-0.0 size=N/A time=00:02:31.52 bitrate=N/A speed=19.6x    frame= 3829 fps=464 q=-0.0 size=N/A time=00:02:39.70 bitrate=N/A speed=19.4x    frame= 4030 fps=460 q=-0.0 size=N/A time=00:02:48.08 bitrate=N/A speed=19.2x    frame= 4258 fps=459 q=-0.0 size=N/A time=00:02:57.59 bitrate=N/A speed=19.1x    frame= 4439 fps=453 q=-0.0 size=N/A time=00:03:05.14 bitrate=N/A speed=18.9x    frame= 4611 fps=447 q=-0.0 size=N/A time=00:03:12.31 bitrate=N/A speed=18.7x    frame= 4790 fps=442 q=-0.0 size=N/A time=00:03:19.78 bitrate=N/A speed=18.5x    frame= 4999 fps=441 q=-0.0 size=N/A time=00:03:28.49 bitrate=N/A speed=18.4x    frame= 5202 fps=439 q=-0.0 size=N/A time=00:03:36.96 bitrate=N/A speed=18.3x    frame= 5400 fps=437 q=-0.0 size=N/A time=00:03:45.22 bitrate=N/A speed=18.2x    frame= 5627 fps=437 q=-0.0 size=N/A time=00:03:54.69 bitrate=N/A speed=18.2x    frame= 5874 fps=438 q=-0.0 size=N/A time=00:04:04.99 bitrate=N/A speed=18.3x    frame= 6139 fps=441 q=-0.0 size=N/A time=00:04:16.04 bitrate=N/A speed=18.4x    frame= 6387 fps=442 q=-0.0 size=N/A time=00:04:26.39 bitrate=N/A speed=18.4x    frame= 6637 fps=443 q=-0.0 size=N/A time=00:04:36.81 bitrate=N/A speed=18.5x    frame= 6889 fps=445 q=-0.0 size=N/A time=00:04:47.32 bitrate=N/A speed=18.6x    frame= 7144 fps=446 q=-0.0 size=N/A time=00:04:57.96 bitrate=N/A speed=18.6x    frame= 7377 fps=446 q=-0.0 size=N/A time=00:05:07.68 bitrate=N/A speed=18.6x    frame= 7607 fps=446 q=-0.0 size=N/A time=00:05:17.27 bitrate=N/A speed=18.6x    frame= 7832 fps=446 q=-0.0 size=N/A time=00:05:26.65 bitrate=N/A speed=18.6x    frame= 8074 fps=447 q=-0.0 size=N/A time=00:05:36.75 bitrate=N/A speed=18.6x    frame= 8319 fps=447 q=-0.0 size=N/A time=00:05:46.97 bitrate=N/A speed=18.7x    frame= 8568 fps=448 q=-0.0 size=N/A time=00:05:57.35 bitrate=N/A speed=18.7x    frame= 8771 fps=447 q=-0.0 size=N/A time=00:06:05.82 bitrate=N/A speed=18.6x    frame= 9026 fps=448 q=-0.0 size=N/A time=00:06:16.45 bitrate=N/A speed=18.7x    frame= 9277 fps=449 q=-0.0 size=N/A time=00:06:26.92 bitrate=N/A speed=18.7x    frame= 9514 fps=450 q=-0.0 size=N/A time=00:06:36.81 bitrate=N/A speed=18.7x    frame= 9761 fps=450 q=-0.0 size=N/A time=00:06:47.11 bitrate=N/A speed=18.8x    frame=10001 fps=451 q=-0.0 size=N/A time=00:06:57.12 bitrate=N/A speed=18.8x    frame=10249 fps=451 q=-0.0 size=N/A time=00:07:07.46 bitrate=N/A speed=18.8x    frame=10494 fps=452 q=-0.0 size=N/A time=00:07:17.68 bitrate=N/A speed=18.8x    frame=10736 fps=452 q=-0.0 size=N/A time=00:07:27.78 bitrate=N/A speed=18.9x    frame=10972 fps=452 q=-0.0 size=N/A time=00:07:37.62 bitrate=N/A speed=18.9x    frame=11241 fps=454 q=-0.0 size=N/A time=00:07:48.84 bitrate=N/A speed=18.9x    frame=11501 fps=455 q=-0.0 size=N/A time=00:07:59.68 bitrate=N/A speed=  19x    frame=11763 fps=456 q=-0.0 size=N/A time=00:08:10.61 bitrate=N/A speed=  19x    frame=12020 fps=457 q=-0.0 size=N/A time=00:08:21.33 bitrate=N/A speed=  19x    frame=12293 fps=458 q=-0.0 size=N/A time=00:08:32.72 bitrate=N/A speed=19.1x    frame=12548 fps=459 q=-0.0 size=N/A time=00:08:43.35 bitrate=N/A speed=19.1x    frame=12814 fps=460 q=-0.0 size=N/A time=00:08:54.45 bitrate=N/A speed=19.2x    frame=13068 fps=460 q=-0.0 size=N/A time=00:09:05.04 bitrate=N/A speed=19.2x    frame=13350 fps=462 q=-0.0 size=N/A time=00:09:16.80 bitrate=N/A speed=19.3x    frame=13609 fps=463 q=-0.0 size=N/A time=00:09:27.60 bitrate=N/A speed=19.3x    frame=13884 fps=464 q=-0.0 size=N/A time=00:09:39.07 bitrate=N/A speed=19.3x    frame=14137 fps=464 q=-0.0 size=N/A time=00:09:49.63 bitrate=N/A speed=19.4x    frame=14384 fps=465 q=-0.0 size=N/A time=00:09:59.93 bitrate=N/A speed=19.4x    frame=14638 fps=465 q=-0.0 size=N/A time=00:10:10.52 bitrate=N/A speed=19.4x    frame=14895 fps=465 q=-0.0 size=N/A time=00:10:21.24 bitrate=N/A speed=19.4x    frame=15146 fps=466 q=-0.0 size=N/A time=00:10:31.71 bitrate=N/A speed=19.4x    frame=15363 fps=465 q=-0.0 size=N/A time=00:10:40.76 bitrate=N/A speed=19.4x    frame=15604 fps=465 q=-0.0 size=N/A time=00:10:50.81 bitrate=N/A speed=19.4x    frame=15860 fps=465 q=-0.0 size=N/A time=00:11:01.49 bitrate=N/A speed=19.4x    frame=16099 fps=465 q=-0.0 size=N/A time=00:11:11.46 bitrate=N/A speed=19.4x    frame=16306 fps=464 q=-0.0 size=N/A time=00:11:20.09 bitrate=N/A speed=19.4x    frame=16520 fps=464 q=-0.0 size=N/A time=00:11:29.02 bitrate=N/A speed=19.3x    frame=16751 fps=464 q=-0.0 size=N/A time=00:11:38.65 bitrate=N/A speed=19.3x    frame=16997 fps=464 q=-0.0 size=N/A time=00:11:48.91 bitrate=N/A speed=19.3x    frame=17226 fps=463 q=-0.0 size=N/A time=00:11:58.46 bitrate=N/A speed=19.3x    frame=17474 fps=464 q=-0.0 size=N/A time=00:12:08.81 bitrate=N/A speed=19.3x    frame=17726 fps=464 q=-0.0 size=N/A time=00:12:19.32 bitrate=N/A speed=19.4x    frame=17979 fps=464 q=-0.0 size=N/A time=00:12:29.87 bitrate=N/A speed=19.4x    frame=18243 fps=465 q=-0.0 size=N/A time=00:12:40.88 bitrate=N/A speed=19.4x    frame=18510 fps=466 q=-0.0 size=N/A time=00:12:52.02 bitrate=N/A speed=19.4x    frame=18745 fps=465 q=-0.0 size=N/A time=00:13:01.82 bitrate=N/A speed=19.4x    frame=18981 fps=465 q=-0.0 size=N/A time=00:13:11.66 bitrate=N/A speed=19.4x    frame=19238 fps=466 q=-0.0 size=N/A time=00:13:22.38 bitrate=N/A speed=19.4x    frame=19493 fps=466 q=-0.0 size=N/A time=00:13:33.02 bitrate=N/A speed=19.4x    frame=19754 fps=467 q=-0.0 size=N/A time=00:13:43.90 bitrate=N/A speed=19.5x    frame=20007 fps=467 q=-0.0 size=N/A time=00:13:54.45 bitrate=N/A speed=19.5x    frame=20275 fps=467 q=-0.0 size=N/A time=00:14:05.63 bitrate=N/A speed=19.5x    frame=20504 fps=467 q=-0.0 size=N/A time=00:14:15.18 bitrate=N/A speed=19.5x    frame=20764 fps=468 q=-0.0 size=N/A time=00:14:26.03 bitrate=N/A speed=19.5x    frame=21014 fps=468 q=-0.0 size=N/A time=00:14:36.45 bitrate=N/A speed=19.5x    frame=21248 fps=468 q=-0.0 size=N/A time=00:14:46.21 bitrate=N/A speed=19.5x    frame=21507 fps=468 q=-0.0 size=N/A time=00:14:57.02 bitrate=N/A speed=19.5x    frame=21766 fps=468 q=-0.0 size=N/A time=00:15:07.82 bitrate=N/A speed=19.5x    frame=22022 fps=469 q=-0.0 size=N/A time=00:15:18.50 bitrate=N/A speed=19.6x    frame=22267 fps=469 q=-0.0 size=N/A time=00:15:28.71 bitrate=N/A speed=19.6x    frame=22509 fps=469 q=-0.0 size=N/A time=00:15:38.81 bitrate=N/A speed=19.6x    frame=22755 fps=469 q=-0.0 size=N/A time=00:15:49.07 bitrate=N/A speed=19.6x    frame=22986 fps=469 q=-0.0 size=N/A time=00:15:58.70 bitrate=N/A speed=19.6x    frame=23253 fps=469 q=-0.0 size=N/A time=00:16:09.84 bitrate=N/A speed=19.6x    frame=23503 fps=469 q=-0.0 size=N/A time=00:16:20.27 bitrate=N/A speed=19.6x    frame=23765 fps=470 q=-0.0 size=N/A time=00:16:31.19 bitrate=N/A speed=19.6x    frame=24027 fps=470 q=-0.0 size=N/A time=00:16:42.12 bitrate=N/A speed=19.6x    frame=24246 fps=470 q=-0.0 size=N/A time=00:16:51.26 bitrate=N/A speed=19.6x    frame=24497 fps=470 q=-0.0 size=N/A time=00:17:01.72 bitrate=N/A speed=19.6x    frame=24749 fps=470 q=-0.0 size=N/A time=00:17:12.23 bitrate=N/A speed=19.6x    frame=24999 fps=470 q=-0.0 size=N/A time=00:17:22.66 bitrate=N/A speed=19.6x    frame=25243 fps=470 q=-0.0 size=N/A time=00:17:32.84 bitrate=N/A speed=19.6x    frame=25491 fps=470 q=-0.0 size=N/A time=00:17:43.18 bitrate=N/A speed=19.6x    frame=25754 fps=470 q=-0.0 size=N/A time=00:17:54.15 bitrate=N/A speed=19.6x    frame=25999 fps=471 q=-0.0 size=N/A time=00:18:04.37 bitrate=N/A speed=19.6x    frame=26243 fps=471 q=-0.0 size=N/A time=00:18:14.55 bitrate=N/A speed=19.6x    frame=26481 fps=471 q=-0.0 size=N/A time=00:18:24.47 bitrate=N/A speed=19.6x    frame=26722 fps=471 q=-0.0 size=N/A time=00:18:34.53 bitrate=N/A speed=19.6x    frame=26952 fps=470 q=-0.0 size=N/A time=00:18:44.12 bitrate=N/A speed=19.6x    frame=27217 fps=471 q=-0.0 size=N/A time=00:18:55.21 bitrate=N/A speed=19.6x    frame=27467 fps=471 q=-0.0 size=N/A time=00:19:05.60 bitrate=N/A speed=19.6x    frame=27711 fps=471 q=-0.0 size=N/A time=00:19:15.77 bitrate=N/A speed=19.6x    frame=27961 fps=471 q=-0.0 size=N/A time=00:19:26.20 bitrate=N/A speed=19.6x    frame=28218 fps=471 q=-0.0 size=N/A time=00:19:36.92 bitrate=N/A speed=19.7x    frame=28477 fps=471 q=-0.0 size=N/A time=00:19:47.72 bitrate=N/A speed=19.7x    frame=28724 fps=472 q=-0.0 size=N/A time=00:19:58.03 bitrate=N/A speed=19.7x    frame=28971 fps=472 q=-0.0 size=N/A time=00:20:08.33 bitrate=N/A speed=19.7x    frame=29185 fps=471 q=-0.0 size=N/A time=00:20:17.25 bitrate=N/A speed=19.7x    frame=29446 fps=471 q=-0.0 size=N/A time=00:20:28.14 bitrate=N/A speed=19.7x    frame=29693 fps=471 q=-0.0 size=N/A time=00:20:38.44 bitrate=N/A speed=19.7x    frame=29943 fps=472 q=-0.0 size=N/A time=00:20:48.87 bitrate=N/A speed=19.7x    frame=30216 fps=472 q=-0.0 size=N/A time=00:21:00.25 bitrate=N/A speed=19.7x    frame=30473 fps=472 q=-0.0 size=N/A time=00:21:10.97 bitrate=N/A speed=19.7x    frame=30731 fps=472 q=-0.0 size=N/A time=00:21:21.73 bitrate=N/A speed=19.7x    frame=30992 fps=473 q=-0.0 size=N/A time=00:21:32.62 bitrate=N/A speed=19.7x    frame=31246 fps=473 q=-0.0 size=N/A time=00:21:43.21 bitrate=N/A speed=19.7x    frame=31490 fps=473 q=-0.0 size=N/A time=00:21:53.39 bitrate=N/A speed=19.7x    frame=31729 fps=473 q=-0.0 size=N/A time=00:22:03.36 bitrate=N/A speed=19.7x    frame=31992 fps=473 q=-0.0 size=N/A time=00:22:14.33 bitrate=N/A speed=19.7x    frame=32231 fps=473 q=-0.0 size=N/A time=00:22:24.30 bitrate=N/A speed=19.7x    frame=32475 fps=473 q=-0.0 size=N/A time=00:22:34.47 bitrate=N/A speed=19.7x    frame=32721 fps=473 q=-0.0 size=N/A time=00:22:44.73 bitrate=N/A speed=19.7x    frame=32986 fps=473 q=-0.0 size=N/A time=00:22:55.79 bitrate=N/A speed=19.7x    frame=33227 fps=473 q=-0.0 size=N/A time=00:23:05.84 bitrate=N/A speed=19.7x    frame=33463 fps=473 q=-0.0 size=N/A time=00:23:15.68 bitrate=N/A speed=19.7x    frame=33660 fps=473 q=-0.0 size=N/A time=00:23:23.90 bitrate=N/A speed=19.7x    frame=33868 fps=472 q=-0.0 size=N/A time=00:23:32.57 bitrate=N/A speed=19.7x    frame=34072 fps=471 q=-0.0 size=N/A time=00:23:41.08 bitrate=N/A speed=19.7x    [Parsed_ssim_10 @ 00000270848d4440] SSIM Y:0.994212 (22.374569) U:0.991981 (20.958672) V:0.991855 (20.891041) All:0.993447 (21.835697)
[out#0/null @ 00000270f7796e00] video:14697KiB audio:267516KiB subtitle:0KiB other streams:0KiB global headers:0KiB muxing overhead: unknown
frame=34203 fps=472 q=-0.0 Lsize=N/A time=00:23:46.55 bitrate=N/A speed=19.7x    
